<svg width="120" height="60" viewBox="0 0 130 60" fill="none" xmlns="http://www.w3.org/2000/svg">
<path d="M20.1424 0.843087L16.9853 0L14.3248 9.89565L11.9228 0.961791L8.76555 1.80488L11.3608 11.4573L4.8967 5.01518L2.58549 7.31854L9.67576 14.3848L0.845959 12.0269L0 15.1733L9.64767 17.7496C9.53721 17.2748 9.47877 16.7801 9.47877 16.2717C9.47877 12.6737 12.4055 9.75685 16.0159 9.75685C19.6262 9.75685 22.5529 12.6737 22.5529 16.2717C22.5529 16.7768 22.4952 17.2685 22.3861 17.7405L31.1541 20.0818L32 16.9354L22.314 14.3489L31.1444 11.9908L30.2984 8.84437L20.6128 11.4308L27.0768 4.98873L24.7656 2.68538L17.7737 9.65357L20.1424 0.843087Z" fill="#367AFF"/>
<path d="M22.3776 17.7771C22.1069 18.9176 21.5354 19.9421 20.7513 20.763L27.1033 27.0935L29.4145 24.7901L22.3776 17.7771Z" fill="#367AFF"/>
<path d="M20.6872 20.8293C19.8936 21.637 18.8907 22.2398 17.7661 22.5505L20.0775 31.1473L23.2346 30.3041L20.6872 20.8293Z" fill="#367AFF"/>
<path d="M17.6481 22.5819C17.1264 22.7156 16.5795 22.7866 16.0159 22.7866C15.4121 22.7866 14.8273 22.705 14.2723 22.5523L11.9588 31.1569L15.1159 32L17.6481 22.5819Z" fill="#367AFF"/>
<path d="M14.1607 22.5205C13.0533 22.1945 12.0683 21.584 11.2909 20.7739L4.92328 27.1199L7.23448 29.4233L14.1607 22.5205Z" fill="#367AFF"/>
<path d="M11.2377 20.7178C10.4737 19.9026 9.91718 18.8917 9.65228 17.7688L0.855713 20.1179L1.70167 23.2643L11.2377 20.7178Z" fill="#367AFF"/>
<path d="M61.0987 13.4347H57.9112C57.8202 12.9119 57.6526 12.4489 57.4083 12.0455C57.164 11.6364 56.86 11.2898 56.4964 11.0057C56.1327 10.7216 55.718 10.5085 55.2521 10.3665C54.7918 10.2188 54.2947 10.1449 53.7606 10.1449C52.8117 10.1449 51.9708 10.3835 51.2379 10.8608C50.5049 11.3324 49.931 12.0256 49.5163 12.9403C49.1015 13.8494 48.8941 14.9602 48.8941 16.2727C48.8941 17.608 49.1015 18.733 49.5163 19.6477C49.9367 20.5568 50.5106 21.2443 51.2379 21.7102C51.9708 22.1705 52.8089 22.4006 53.7521 22.4006C54.2748 22.4006 54.7634 22.3324 55.218 22.196C55.6782 22.054 56.0901 21.8466 56.4538 21.5739C56.8231 21.3011 57.1327 20.9659 57.3827 20.5682C57.6384 20.1705 57.8146 19.7159 57.9112 19.2045L61.0987 19.2216C60.9793 20.0511 60.7208 20.8295 60.3231 21.5568C59.931 22.2841 59.4168 22.9261 58.7805 23.483C58.1441 24.0341 57.3998 24.4659 56.5475 24.7784C55.6952 25.0852 54.7492 25.2386 53.7094 25.2386C52.1754 25.2386 50.806 24.8835 49.6015 24.1733C48.3969 23.4631 47.4481 22.4375 46.7549 21.0966C46.0617 19.7557 45.7151 18.1477 45.7151 16.2727C45.7151 14.392 46.0646 12.7841 46.7634 11.4489C47.4623 10.108 48.414 9.08239 49.6185 8.37216C50.8231 7.66193 52.1867 7.30682 53.7094 7.30682C54.681 7.30682 55.5844 7.44318 56.4197 7.71591C57.2549 7.98864 57.9992 8.3892 58.6526 8.91761C59.306 9.44034 59.843 10.0824 60.2634 10.8438C60.6896 11.5994 60.968 12.4631 61.0987 13.4347ZM66.6649 25.2642C65.8354 25.2642 65.0882 25.1165 64.4235 24.821C63.7644 24.5199 63.2416 24.0767 62.8553 23.4915C62.4746 22.9062 62.2843 22.1847 62.2843 21.3267C62.2843 20.5881 62.4206 19.9773 62.6933 19.4943C62.9661 19.0114 63.3382 18.625 63.8098 18.3352C64.2814 18.0455 64.8127 17.8267 65.4036 17.679C66.0002 17.5256 66.6166 17.4148 67.253 17.3466C68.02 17.267 68.6422 17.196 69.1195 17.1335C69.5968 17.0653 69.9433 16.9631 70.1593 16.8267C70.3808 16.6847 70.4916 16.4659 70.4916 16.1705V16.1193C70.4916 15.4773 70.3013 14.9801 69.9206 14.6278C69.5399 14.2756 68.9916 14.0994 68.2757 14.0994C67.52 14.0994 66.9206 14.2642 66.4774 14.5938C66.0399 14.9233 65.7445 15.3125 65.5911 15.7614L62.7104 15.3523C62.9377 14.5568 63.3127 13.892 63.8354 13.358C64.3581 12.8182 64.9973 12.4148 65.753 12.1477C66.5087 11.875 67.3439 11.7386 68.2587 11.7386C68.8894 11.7386 69.5172 11.8125 70.1422 11.9602C70.7672 12.108 71.3382 12.3523 71.8553 12.6932C72.3723 13.0284 72.7871 13.4858 73.0996 14.0653C73.4178 14.6449 73.5769 15.3693 73.5769 16.2386V25H70.611V23.2017H70.5087C70.3212 23.5653 70.057 23.9062 69.7161 24.2244C69.3808 24.5369 68.9575 24.7898 68.4462 24.983C67.9405 25.1705 67.3468 25.2642 66.6649 25.2642ZM67.4661 22.9972C68.0854 22.9972 68.6223 22.875 69.0769 22.6307C69.5314 22.3807 69.8808 22.0511 70.1252 21.642C70.3752 21.233 70.5002 20.7869 70.5002 20.304V18.7614C70.4036 18.8409 70.2388 18.9148 70.0058 18.983C69.7786 19.0511 69.5229 19.1108 69.2388 19.1619C68.9547 19.2131 68.6735 19.2585 68.395 19.2983C68.1166 19.3381 67.8752 19.3722 67.6706 19.4006C67.2104 19.4631 66.7985 19.5653 66.4348 19.7074C66.0712 19.8494 65.7843 20.0483 65.574 20.304C65.3638 20.554 65.2587 20.8778 65.2587 21.2756C65.2587 21.8438 65.4661 22.2727 65.8808 22.5625C66.2956 22.8523 66.824 22.9972 67.4661 22.9972ZM75.7191 25V11.9091H78.7106V14.0909H78.847C79.0856 13.3352 79.4947 12.7528 80.0743 12.3438C80.6595 11.929 81.3271 11.7216 82.0771 11.7216C82.2475 11.7216 82.4379 11.7301 82.6481 11.7472C82.864 11.7585 83.043 11.7784 83.185 11.8068V14.6449C83.0544 14.5994 82.847 14.5597 82.5629 14.5256C82.2845 14.4858 82.0146 14.4659 81.7532 14.4659C81.1907 14.4659 80.685 14.5881 80.2362 14.8324C79.793 15.071 79.4436 15.4034 79.1879 15.8295C78.9322 16.2557 78.8044 16.7472 78.8044 17.304V25H75.7191ZM89.5312 25.2557C88.2187 25.2557 87.0851 24.983 86.1306 24.4375C85.1817 23.8864 84.4516 23.108 83.9402 22.1023C83.4289 21.0909 83.1732 19.9006 83.1732 18.5312C83.1732 17.1847 83.4289 16.0028 83.9402 14.9858C84.4573 13.9631 85.1789 13.1676 86.105 12.5994C87.0312 12.0256 88.1192 11.7386 89.3692 11.7386C90.176 11.7386 90.9374 11.8693 91.6533 12.1307C92.3749 12.3864 93.0113 12.7841 93.5624 13.3239C94.1192 13.8636 94.5567 14.5511 94.8749 15.3864C95.1931 16.2159 95.3522 17.2045 95.3522 18.3523V19.2983H84.6221V17.2188H92.3948C92.3891 16.6278 92.2613 16.1023 92.0113 15.642C91.7613 15.1761 91.4118 14.8097 90.963 14.5426C90.5198 14.2756 90.0027 14.142 89.4118 14.142C88.7812 14.142 88.2272 14.2955 87.7499 14.6023C87.2726 14.9034 86.9005 15.3011 86.6334 15.7955C86.3721 16.2841 86.2385 16.821 86.2329 17.4062V19.2216C86.2329 19.983 86.3721 20.6364 86.6505 21.1818C86.9289 21.7216 87.3181 22.1364 87.8181 22.4261C88.3181 22.7102 88.9033 22.8523 89.5738 22.8523C90.0226 22.8523 90.4289 22.7898 90.7925 22.6648C91.1562 22.5341 91.4715 22.3438 91.7385 22.0938C92.0056 21.8438 92.2073 21.5341 92.3437 21.1648L95.2243 21.4886C95.0425 22.25 94.6959 22.9148 94.1846 23.483C93.6789 24.0455 93.0312 24.483 92.2414 24.7955C91.4516 25.1023 90.5482 25.2557 89.5312 25.2557ZM102.798 25.2557C101.485 25.2557 100.352 24.983 99.3971 24.4375C98.4483 23.8864 97.7182 23.108 97.2068 22.1023C96.6954 21.0909 96.4398 19.9006 96.4398 18.5312C96.4398 17.1847 96.6954 16.0028 97.2068 14.9858C97.7239 13.9631 98.4454 13.1676 99.3716 12.5994C100.298 12.0256 101.386 11.7386 102.636 11.7386C103.443 11.7386 104.204 11.8693 104.92 12.1307C105.641 12.3864 106.278 12.7841 106.829 13.3239C107.386 13.8636 107.823 14.5511 108.141 15.3864C108.46 16.2159 108.619 17.2045 108.619 18.3523V19.2983H97.8886V17.2188H105.661C105.656 16.6278 105.528 16.1023 105.278 15.642C105.028 15.1761 104.678 14.8097 104.23 14.5426C103.786 14.2756 103.269 14.142 102.678 14.142C102.048 14.142 101.494 14.2955 101.016 14.6023C100.539 14.9034 100.167 15.3011 99.9 15.7955C99.6386 16.2841 99.5051 16.821 99.4994 17.4062V19.2216C99.4994 19.983 99.6386 20.6364 99.917 21.1818C100.195 21.7216 100.585 22.1364 101.085 22.4261C101.585 22.7102 102.17 22.8523 102.84 22.8523C103.289 22.8523 103.695 22.7898 104.059 22.6648C104.423 22.5341 104.738 22.3438 105.005 22.0938C105.272 21.8438 105.474 21.5341 105.61 21.1648L108.491 21.4886C108.309 22.25 107.962 22.9148 107.451 23.483C106.945 24.0455 106.298 24.483 105.508 24.7955C104.718 25.1023 103.815 25.2557 102.798 25.2557ZM110.269 25V11.9091H113.26V14.0909H113.397C113.635 13.3352 114.044 12.7528 114.624 12.3438C115.209 11.929 115.877 11.7216 116.627 11.7216C116.797 11.7216 116.988 11.7301 117.198 11.7472C117.414 11.7585 117.593 11.7784 117.735 11.8068V14.6449C117.604 14.5994 117.397 14.5597 117.113 14.5256C116.834 14.4858 116.564 14.4659 116.303 14.4659C115.74 14.4659 115.235 14.5881 114.786 14.8324C114.343 15.071 113.993 15.4034 113.738 15.8295C113.482 16.2557 113.354 16.7472 113.354 17.304V25H110.269ZM133.901 13.4347H130.714C130.623 12.9119 130.455 12.4489 130.211 12.0455C129.966 11.6364 129.663 11.2898 129.299 11.0057C128.935 10.7216 128.52 10.5085 128.055 10.3665C127.594 10.2188 127.097 10.1449 126.563 10.1449C125.614 10.1449 124.773 10.3835 124.04 10.8608C123.307 11.3324 122.734 12.0256 122.319 12.9403C121.904 13.8494 121.697 14.9602 121.697 16.2727C121.697 17.608 121.904 18.733 122.319 19.6477C122.739 20.5568 123.313 21.2443 124.04 21.7102C124.773 22.1705 125.611 22.4006 126.555 22.4006C127.077 22.4006 127.566 22.3324 128.02 22.196C128.481 22.054 128.893 21.8466 129.256 21.5739C129.626 21.3011 129.935 20.9659 130.185 20.5682C130.441 20.1705 130.617 19.7159 130.714 19.2045L133.901 19.2216C133.782 20.0511 133.523 20.8295 133.126 21.5568C132.734 22.2841 132.219 22.9261 131.583 23.483C130.947 24.0341 130.202 24.4659 129.35 24.7784C128.498 25.0852 127.552 25.2386 126.512 25.2386C124.978 25.2386 123.609 24.8835 122.404 24.1733C121.199 23.4631 120.251 22.4375 119.557 21.0966C118.864 19.7557 118.518 18.1477 118.518 16.2727C118.518 14.392 118.867 12.7841 119.566 11.4489C120.265 10.108 121.216 9.08239 122.421 8.37216C123.626 7.66193 124.989 7.30682 126.512 7.30682C127.484 7.30682 128.387 7.44318 129.222 7.71591C130.057 7.98864 130.802 8.3892 131.455 8.91761C132.109 9.44034 132.645 10.0824 133.066 10.8438C133.492 11.5994 133.77 12.4631 133.901 13.4347ZM139.467 25.2642C138.638 25.2642 137.891 25.1165 137.226 24.821C136.567 24.5199 136.044 24.0767 135.658 23.4915C135.277 22.9062 135.087 22.1847 135.087 21.3267C135.087 20.5881 135.223 19.9773 135.496 19.4943C135.769 19.0114 136.141 18.625 136.612 18.3352C137.084 18.0455 137.615 17.8267 138.206 17.679C138.803 17.5256 139.419 17.4148 140.055 17.3466C140.823 17.267 141.445 17.196 141.922 17.1335C142.399 17.0653 142.746 16.9631 142.962 16.8267C143.183 16.6847 143.294 16.4659 143.294 16.1705V16.1193C143.294 15.4773 143.104 14.9801 142.723 14.6278C142.342 14.2756 141.794 14.0994 141.078 14.0994C140.323 14.0994 139.723 14.2642 139.28 14.5938C138.842 14.9233 138.547 15.3125 138.394 15.7614L135.513 15.3523C135.74 14.5568 136.115 13.892 136.638 13.358C137.161 12.8182 137.8 12.4148 138.555 12.1477C139.311 11.875 140.146 11.7386 141.061 11.7386C141.692 11.7386 142.32 11.8125 142.945 11.9602C143.57 12.108 144.141 12.3523 144.658 12.6932C145.175 13.0284 145.59 13.4858 145.902 14.0653C146.22 14.6449 146.379 15.3693 146.379 16.2386V25H143.413V23.2017H143.311C143.124 23.5653 142.859 23.9062 142.519 24.2244C142.183 24.5369 141.76 24.7898 141.249 24.983C140.743 25.1705 140.149 25.2642 139.467 25.2642ZM140.269 22.9972C140.888 22.9972 141.425 22.875 141.879 22.6307C142.334 22.3807 142.683 22.0511 142.928 21.642C143.178 21.233 143.303 20.7869 143.303 20.304V18.7614C143.206 18.8409 143.041 18.9148 142.808 18.983C142.581 19.0511 142.325 19.1108 142.041 19.1619C141.757 19.2131 141.476 19.2585 141.198 19.2983C140.919 19.3381 140.678 19.3722 140.473 19.4006C140.013 19.4631 139.601 19.5653 139.237 19.7074C138.874 19.8494 138.587 20.0483 138.377 20.304C138.166 20.554 138.061 20.8778 138.061 21.2756C138.061 21.8438 138.269 22.2727 138.683 22.5625C139.098 22.8523 139.627 22.9972 140.269 22.9972ZM155.059 11.9091V14.2955H147.533V11.9091H155.059ZM149.391 8.77273H152.476V21.0625C152.476 21.4773 152.539 21.7955 152.664 22.017C152.794 22.233 152.965 22.3807 153.175 22.4602C153.385 22.5398 153.618 22.5795 153.874 22.5795C154.067 22.5795 154.243 22.5653 154.402 22.5369C154.567 22.5085 154.692 22.483 154.777 22.4602L155.297 24.8722C155.132 24.929 154.897 24.9915 154.59 25.0597C154.289 25.1278 153.919 25.1676 153.482 25.179C152.709 25.2017 152.013 25.0852 151.394 24.8295C150.774 24.5682 150.283 24.1648 149.919 23.6193C149.561 23.0739 149.385 22.392 149.391 21.5739V8.77273ZM162.248 25.2557C160.942 25.2557 159.819 24.9688 158.882 24.3949C157.95 23.821 157.231 23.0284 156.726 22.017C156.226 21 155.976 19.8295 155.976 18.5057C155.976 17.1761 156.231 16.0028 156.743 14.9858C157.254 13.9631 157.976 13.1676 158.908 12.5994C159.845 12.0256 160.953 11.7386 162.231 11.7386C163.294 11.7386 164.234 11.9347 165.052 12.3267C165.876 12.7131 166.533 13.2614 167.021 13.9716C167.51 14.6761 167.788 15.5 167.856 16.4432H164.908C164.788 15.8125 164.504 15.2869 164.055 14.8665C163.612 14.4403 163.018 14.2273 162.274 14.2273C161.643 14.2273 161.089 14.3977 160.612 14.7386C160.135 15.0739 159.763 15.5568 159.496 16.1875C159.234 16.8182 159.104 17.5739 159.104 18.4545C159.104 19.3466 159.234 20.1136 159.496 20.7557C159.757 21.392 160.123 21.8835 160.595 22.2301C161.072 22.571 161.632 22.7415 162.274 22.7415C162.729 22.7415 163.135 22.6562 163.493 22.4858C163.856 22.3097 164.16 22.0568 164.405 21.7273C164.649 21.3977 164.817 20.9972 164.908 20.5256H167.856C167.783 21.4517 167.51 22.2727 167.038 22.9886C166.567 23.6989 165.925 24.2557 165.112 24.6591C164.3 25.0568 163.345 25.2557 162.248 25.2557ZM172.515 17.3295V25H169.43V7.54545H172.447V14.1335H172.6C172.907 13.3949 173.381 12.8125 174.024 12.3864C174.671 11.9545 175.495 11.7386 176.495 11.7386C177.404 11.7386 178.197 11.929 178.873 12.3097C179.549 12.6903 180.072 13.2472 180.441 13.9801C180.816 14.7131 181.004 15.608 181.004 16.6648V25H177.918V17.142C177.918 16.2614 177.691 15.5767 177.237 15.0881C176.788 14.5937 176.157 14.3466 175.345 14.3466C174.799 14.3466 174.31 14.4659 173.879 14.7045C173.452 14.9375 173.117 15.2756 172.873 15.7188C172.634 16.1619 172.515 16.6989 172.515 17.3295Z" fill="#232323"/>
</svg>
